<?xml version="1.0" encoding="UTF-8"?><svg id="a" xmlns="http://www.w3.org/2000/svg" viewBox="0 0 500 500"><defs><style>.b{fill:#1d1d1b;}</style></defs><path class="b" d="M103.89,320.75c-14.94,0-28.03-2.9-39.28-8.69-11.25-5.79-20.01-13.75-26.29-23.87-6.27-10.12-9.41-21.76-9.41-34.92s3.14-24.56,9.41-35.37c6.27-10.8,14.94-19.45,25.99-25.94s23.75-9.73,38.09-9.73c13.34,0,24.79,2.65,34.35,7.96s16.88,12.04,21.96,20.19c5.08,8.16,7.62,16.75,7.62,25.79s-2.09,16.46-6.27,22.25c-4.18,5.8-9.61,10.22-16.28,13.26-6.67,3.05-13.79,5.06-21.36,6.04-7.57,.99-14.84,1.13-21.81,.44-6.97-.69-12.85-1.81-17.62-3.39,3.58,5.7,8.11,9.58,13.59,11.64,5.48,2.06,11.25,2.95,17.33,2.65,6.07-.29,11.6-.93,16.58-1.92,6.17-1.37,11.25-1.08,15.23,.88,3.98,1.97,6.07,5.11,6.27,9.43,.2,3.54-1.05,7.07-3.73,10.61-2.69,3.54-7.52,6.53-14.49,8.99-6.97,2.46-16.93,3.68-29.87,3.68Zm-20.01-81.93c1.99,3.15,4.88,5.36,8.66,6.63,3.78,1.28,7.62,1.72,11.5,1.33,3.88-.39,7.17-1.47,9.86-3.24,2.69-1.77,4.03-4.22,4.03-7.37,0-3.34-1.34-6.34-4.03-8.99-2.69-2.65-6.92-3.98-12.7-3.98s-9.86,1.72-12.85,5.16c-2.99,3.44-4.48,6.93-4.48,10.46Z"/><path class="b" d="M293.28,320.75c-7.97,0-13.59-2.21-16.88-6.63s-5.23-10.02-5.83-16.8c-.6-6.78-.9-13.6-.9-20.48,0-10.41-1.49-18.81-4.48-25.2-2.99-6.38-8.27-9.58-15.83-9.58-6.77,0-11.75,3.2-14.94,9.58-3.19,6.39-4.78,14.79-4.78,25.2,0,6.88-.25,13.66-.75,20.34-.5,6.68-2.34,12.23-5.53,16.65-3.19,4.42-8.96,6.63-17.33,6.63-6.17,0-11.3-2.26-15.38-6.78-4.08-4.52-7.22-10.41-9.41-17.68-2.19-7.27-3.73-15.13-4.63-23.58-.9-8.45-1.34-16.6-1.34-24.46s.4-15.91,1.19-24.17c.79-8.25,2.24-15.91,4.33-22.99,2.09-7.07,5.12-12.77,9.11-17.09,3.98-4.32,9.16-6.48,15.53-6.48,11.35,0,18.42,5.11,21.21,15.33,2.39-2.55,6.22-4.96,11.5-7.22,5.27-2.26,11.3-3.39,18.07-3.39,15.33,0,27.88,3.83,37.64,11.49,9.75,7.66,16.88,18.23,21.36,31.68,4.48,13.46,6.62,29.03,6.42,46.71,0,9.04-.85,17.24-2.54,24.61-1.69,7.37-4.58,13.26-8.66,17.68-4.08,4.42-9.81,6.63-17.18,6.63Z"/><path class="b" d="M401.71,320.75c-14.74,0-27.44-3.44-38.09-10.32-10.66-6.88-18.82-15.81-24.5-26.82-5.68-11-8.51-22.5-8.51-34.48,0-15.33,3.14-27.9,9.41-37.72,6.27-9.82,14.29-17.14,24.05-21.96,9.76-4.81,19.91-7.22,30.47-7.22,4.98,0,10.05,.54,15.24,1.62,5.18,1.08,10.05,2.9,14.64,5.45-.8-8.45-2.54-16.75-5.23-24.9-2.69-8.15-4.03-16.45-4.03-24.9s2.69-15.03,8.07-19.16,11.15-6.19,17.33-6.19c7.17,0,13.34,2.26,18.52,6.78,5.18,4.52,9.61,10.51,13.29,17.98,3.68,7.47,6.62,15.87,8.81,25.2,2.19,9.33,3.78,18.91,4.78,28.74,.99,9.83,1.49,19.26,1.49,28.29,0,2.95-.15,7.47-.45,13.56-.3,6.09-1.25,12.87-2.84,20.34-1.6,7.47-4.14,15.03-7.62,22.69-3.49,7.66-8.36,14.74-14.64,21.22-6.27,6.48-14.29,11.74-24.05,15.77-9.76,4.03-21.81,6.04-36.15,6.04Zm1.79-46.57c5.38,0,10.05-2.01,14.04-6.04,3.98-4.02,5.97-8.79,5.97-14.29s-1.99-10.31-5.97-14.44c-3.99-4.13-8.66-6.19-14.04-6.19s-10.11,2.06-14.19,6.19c-4.08,4.13-6.12,8.94-6.12,14.44s2.04,10.27,6.12,14.29c4.08,4.03,8.81,6.04,14.19,6.04Z"/></svg>