<?xml version="1.0" encoding="UTF-8"?><svg id="a" xmlns="http://www.w3.org/2000/svg" viewBox="0 0 500 500"><defs><style>.b{fill:#fff;}.c{fill:#1d1d1b;opacity:.9;}</style></defs><rect class="c" y="83.93" width="500" height="332.14" rx="21.9" ry="21.9"/><g><path class="b" d="M115.91,316.88c-6.02,0-12.43-.44-19.25-1.32-6.82-.88-13.53-2.71-20.13-5.5-6.6-2.79-12.62-6.89-18.04-12.32-5.43-5.42-9.76-12.65-12.98-21.67-3.23-9.02-4.84-20.2-4.84-33.55,0-14.66,2.49-28.01,7.48-40.04,4.98-12.02,12.54-21.63,22.66-28.82,10.12-7.18,22.8-10.78,38.06-10.78,11,0,19.98,.96,26.95,2.86,6.96,1.91,12.43,4.4,16.39,7.48s6.71,6.46,8.25,10.12c1.54,3.67,2.31,7.34,2.31,11s-.99,7.48-2.97,11c-1.98,3.52-5.1,6.31-9.35,8.36-4.11,1.91-8.36,2.75-12.76,2.53-4.4-.22-8.36-.33-11.88-.33-7.63,0-13.61,1.36-17.93,4.07-4.33,2.72-7.37,6.86-9.13,12.43,2.34-.14,4.95-.25,7.81-.33,2.86-.07,5.83-.11,8.91-.11,6.01,0,11.77,.11,17.27,.33,5.5,.22,9.35,.55,11.55,.99,5.13,1.03,9.02,3.05,11.66,6.05,2.64,3.01,3.96,6.42,3.96,10.23s-1.25,6.97-3.74,9.9c-2.5,2.94-6.53,4.99-12.1,6.16-2.06,.44-5.98,.77-11.77,.99-5.8,.22-11.85,.33-18.15,.33-2.5,0-4.92-.04-7.26-.11-2.35-.07-4.48-.11-6.38-.11,2.05,4.55,5.17,8.11,9.35,10.67,4.18,2.57,9.57,3.85,16.17,3.85,2.49,0,6.08-.25,10.78-.77,4.69-.51,9.24-.11,13.64,1.21,7.04,2.2,10.56,6.82,10.56,13.86,0,3.82-1.29,7.37-3.85,10.67-2.57,3.3-7.12,5.91-13.64,7.81-6.53,1.91-15.73,2.86-27.61,2.86Z"/><path class="b" d="M197.09,316.88c-4.55,0-8.55-1.83-11.99-5.5-3.45-3.66-6.31-8.5-8.58-14.52-2.28-6.01-4.11-12.61-5.5-19.8-1.4-7.18-2.38-14.41-2.97-21.67-.59-7.26-.88-13.82-.88-19.69,0-7.48,.58-15.4,1.76-23.76,1.17-8.36,3.22-16.24,6.16-23.65,2.93-7.4,6.96-13.45,12.1-18.15,5.13-4.69,11.73-7.04,19.8-7.04,5.57,0,10.45,1.8,14.63,5.39,4.18,3.6,7.95,8.58,11.33,14.96,3.37,6.38,6.6,13.68,9.68,21.89,3.08,8.22,6.38,16.94,9.9,26.18-.59-12.61-.19-24.09,1.21-34.43,1.39-10.34,4.29-18.59,8.69-24.75,4.4-6.16,10.63-9.24,18.7-9.24,6.89,0,12.43,2.35,16.61,7.04,4.18,4.7,7.37,10.75,9.57,18.15,2.2,7.41,3.7,15.29,4.51,23.65,.8,8.36,1.21,16.28,1.21,23.76,0,6.02-.44,12.62-1.32,19.8-.88,7.19-2.35,14.38-4.4,21.56-2.06,7.19-4.84,13.79-8.36,19.8-3.52,6.02-7.81,10.86-12.87,14.52-5.06,3.67-11.11,5.5-18.15,5.5-6.31,0-11.7-2.01-16.17-6.05-4.48-4.03-8.44-9.38-11.88-16.06-3.45-6.67-6.64-14.04-9.57-22.11-2.94-8.06-6.02-16.13-9.24-24.2,.14,10.12,.14,19.4,0,27.83-.15,8.44-.92,15.66-2.31,21.67-1.4,6.02-3.78,10.67-7.15,13.97-3.38,3.3-8.22,4.95-14.52,4.95Z"/><path class="b" d="M383.65,316.88c-14.23,0-25.52-1.28-33.88-3.85-8.36-2.56-14.52-6.71-18.48-12.43-3.96-5.72-6.53-13.42-7.7-23.1-1.18-9.68-1.76-21.63-1.76-35.86s.55-26.36,1.65-36.41c1.1-10.04,3.59-18.18,7.48-24.42,3.88-6.23,9.97-10.78,18.26-13.64,8.29-2.86,19.54-4.29,33.77-4.29,6.01,0,12.46,.85,19.36,2.53,6.89,1.69,13.71,4.37,20.46,8.03,6.74,3.67,12.87,8.58,18.37,14.74,5.5,6.16,9.9,13.64,13.2,22.44,3.3,8.8,4.95,19.22,4.95,31.24s-1.73,21.6-5.17,30.03c-3.45,8.44-7.92,15.55-13.42,21.34-5.5,5.79-11.63,10.42-18.37,13.86-6.75,3.45-13.5,5.94-20.24,7.48-6.75,1.54-12.91,2.31-18.48,2.31Zm-13.64-38.72c13.49,2.06,24.01,.3,31.57-5.28,7.55-5.57,11.33-14,11.33-25.3,0-10.26-3.78-17.85-11.33-22.77-7.56-4.91-18.08-6.34-31.57-4.29v57.64Z"/></g></svg>